<svg width="18" height="18" viewBox="0 0 18 18" fill="none" xmlns="http://www.w3.org/2000/svg">
<path d="M1.66665 4.16659H3.49061C3.6337 4.69306 3.94605 5.15783 4.37948 5.48918C4.8129 5.82053 5.34332 6.00005 5.88889 6.00005C6.43447 6.00005 6.96488 5.82053 7.39831 5.48918C7.83174 5.15783 8.14409 4.69306 8.28718 4.16659H16.333C16.5098 4.16659 16.6794 4.09635 16.8044 3.97133C16.9294 3.84631 16.9997 3.67674 16.9997 3.49994C16.9997 3.32313 16.9294 3.15356 16.8044 3.02854C16.6794 2.90352 16.5098 2.83328 16.333 2.83328H8.28718C8.14409 2.30681 7.83174 1.84204 7.39831 1.51069C6.96488 1.17934 6.43447 0.999817 5.88889 0.999817C5.34332 0.999817 4.8129 1.17934 4.37948 1.51069C3.94605 1.84204 3.6337 2.30681 3.49061 2.83328H1.66665C1.48985 2.83328 1.32028 2.90352 1.19526 3.02854C1.07024 3.15356 1 3.32313 1 3.49994C1 3.67674 1.07024 3.84631 1.19526 3.97133C1.32028 4.09635 1.48985 4.16659 1.66665 4.16659ZM5.88856 2.33329C6.1193 2.33329 6.34486 2.40172 6.53671 2.52991C6.72857 2.6581 6.8781 2.84031 6.9664 3.05348C7.0547 3.26666 7.0778 3.50123 7.03279 3.72754C6.98777 3.95384 6.87666 4.16172 6.7135 4.32488C6.55034 4.48803 6.34247 4.59915 6.11616 4.64416C5.88986 4.68918 5.65528 4.66607 5.44211 4.57777C5.22893 4.48947 5.04673 4.33994 4.91853 4.14809C4.79034 3.95623 4.72192 3.73068 4.72192 3.49994C4.72227 3.19063 4.8453 2.8941 5.06401 2.67539C5.28272 2.45667 5.57926 2.33365 5.88856 2.33329Z" fill="black"/>
<path d="M16.333 8.3332H14.509C14.3662 7.8066 14.054 7.34167 13.6206 7.01018C13.1872 6.67869 12.6567 6.49908 12.1111 6.49908C11.5655 6.49908 11.035 6.67869 10.6016 7.01018C10.1682 7.34167 9.856 7.8066 9.71315 8.3332H1.66665C1.48985 8.3332 1.32028 8.40344 1.19526 8.52846C1.07024 8.65348 1 8.82305 1 8.99985C1 9.17666 1.07024 9.34623 1.19526 9.47125C1.32028 9.59627 1.48985 9.66651 1.66665 9.66651H9.71315C9.856 10.1931 10.1682 10.658 10.6016 10.9895C11.035 11.321 11.5655 11.5006 12.1111 11.5006C12.6567 11.5006 13.1872 11.321 13.6206 10.9895C14.054 10.658 14.3662 10.1931 14.509 9.66651H16.333C16.5098 9.66651 16.6794 9.59627 16.8044 9.47125C16.9294 9.34623 16.9997 9.17666 16.9997 8.99985C16.9997 8.82305 16.9294 8.65348 16.8044 8.52846C16.6794 8.40344 16.5098 8.3332 16.333 8.3332ZM12.1111 10.1665C11.8804 10.1665 11.6548 10.0981 11.4629 9.96988C11.2711 9.84169 11.1216 9.65948 11.0333 9.44631C10.945 9.23313 10.9219 8.99856 10.9669 8.77225C11.0119 8.54595 11.123 8.33807 11.2862 8.17491C11.4493 8.01176 11.6572 7.90064 11.8835 7.85563C12.1098 7.81061 12.3444 7.83372 12.5575 7.92202C12.7707 8.01032 12.9529 8.15985 13.0811 8.3517C13.2093 8.54356 13.2777 8.76911 13.2777 8.99985C13.2774 9.30916 13.1544 9.60569 12.9356 9.8244C12.7169 10.0431 12.4204 10.1661 12.1111 10.1665Z" fill="black"/>
<path d="M16.333 13.833H8.28718C8.14409 13.3066 7.83174 12.8418 7.39831 12.5104C6.96488 12.1791 6.43447 11.9996 5.88889 11.9996C5.34332 11.9996 4.8129 12.1791 4.37948 12.5104C3.94605 12.8418 3.6337 13.3066 3.49061 13.833H1.66665C1.48985 13.833 1.32028 13.9033 1.19526 14.0283C1.07024 14.1533 1 14.3229 1 14.4997C1 14.6765 1.07024 14.8461 1.19526 14.9711C1.32028 15.0961 1.48985 15.1663 1.66665 15.1663H3.49061C3.6337 15.6928 3.94605 16.1576 4.37948 16.4889C4.8129 16.8203 5.34332 16.9998 5.88889 16.9998C6.43447 16.9998 6.96488 16.8203 7.39831 16.4889C7.83174 16.1576 8.14409 15.6928 8.28718 15.1663H16.333C16.5098 15.1663 16.6794 15.0961 16.8044 14.9711C16.9294 14.8461 16.9997 14.6765 16.9997 14.4997C16.9997 14.3229 16.9294 14.1533 16.8044 14.0283C16.6794 13.9033 16.5098 13.833 16.333 13.833ZM5.88856 15.6663C5.65782 15.6663 5.43226 15.5979 5.24041 15.4697C5.04856 15.3415 4.89903 15.1593 4.81072 14.9461C4.72242 14.733 4.69932 14.4984 4.74434 14.2721C4.78935 14.0458 4.90046 13.8379 5.06362 13.6748C5.22678 13.5116 5.43465 13.4005 5.66096 13.3555C5.88727 13.3105 6.12184 13.3336 6.33502 13.4219C6.54819 13.5102 6.7304 13.6597 6.85859 13.8515C6.98678 14.0434 7.0552 14.269 7.0552 14.4997C7.05467 14.8089 6.93159 15.1054 6.71292 15.324C6.49424 15.5427 6.19781 15.6658 5.88856 15.6663Z" fill="black"/>
</svg>
